# xmcd
#
# Track frame offsets:
#	150
#	13691
#	30640
#	50218
#	67735
#	82535
#	95460
#	108578
#	122778
#	140255
#	154507
#
# Disc length: 2222 seconds
#
# Revision: 1
# Processed by: cddbd v1.5PL3 Copyright (c) Steve Scherf et al.
# Submitted via: EasyCDDAExtractor 7.0.3.1
#
DISCID=8108ac0b
DTITLE=Toby Keith - Pickin' on Toby Keith Vol II
DYEAR=2004
DGENRE=Bluegrass
TTITLE0=Beer for my Horses
TTITLE1=Betcha Some
TTITLE2=We were in Love
TTITLE3=Me Too
TTITLE4=I love This Bar
TTITLE5=You Shouldn't Kiss Me Like This
TTITLE6=A Little Less Talk and a Lot More Action
TTITLE7=Wish I Didn't Know Now
TTITLE8=Does that Blue Moon Ever Shine on You
TTITLE9=My List
TTITLE10=Bully of the Town
EXTD=
EXTT0=
EXTT1=
EXTT2=
EXTT3=
EXTT4=
EXTT5=
EXTT6=
EXTT7=
EXTT8=
EXTT9=
EXTT10=
PLAYORDER=
